 <svg  version="1.0" xmlns="http://www.w3.org/2000/svg"  width="225.000000pt" height="225.000000pt" viewBox="0 0 225.000000 225.000000"  preserveAspectRatio="xMidYMid meet">  <g transform="translate(0.000000,225.000000) scale(0.100000,-0.100000)" fill="#1eab1c" stroke="none"> <path d="M35 2216 c-26 -27 -33 -72 -15 -106 17 -32 67 -40 244 -40 186 0 202 -4 230 -58 8 -15 93 -297 190 -627 247 -839 249 -844 296 -904 22 -27 60 -64 85 -81 86 -59 91 -60 517 -60 235 0 397 4 408 10 10 5 23 24 29 41 14 41 -8 96 -41 103 -13 3 -187 7 -388 8 -409 4 -413 5 -468 77 -24 31 -52 83 -52 96 0 2 168 5 373 7 430 3 414 0 464 95 33 62 125 259 254 541 71 155 79 180 79 233 0 70 -17 108 -62 141 l-33 23 -690 2 -690 3 -23 77 c-95 318 -116 360 -204 408 l-53 30 -212 3 -212 4 -26 -26z m1175 -751 l0 -75 -163 0 -164 0 -16 58 c-9 31 -19 65 -22 75 -7 16 6 17 179 17 l186 0 0 -75z m340 0 l0 -75 -115 0 -115 0 0 75 0 75 115 0 115 0 0 -75z m510 51 c-5 -14 -21 -48 -35 -75 l-25 -51 -170 0 -170 0 0 68 c0 38 3 72 7 75 3 4 95 7 204 7 l199 0 -10 -24z m-850 -316 l0 -71 -122 3 -121 3 -18 50 c-31 90 -38 85 121 85 l140 0 0 -70z m340 0 l0 -70 -115 0 -115 0 0 70 0 70 115 0 115 0 0 -70z m390 60 c0 -6 -14 -37 -30 -70 l-30 -60 -110 0 -110 0 0 70 0 70 140 0 c89 0 140 -4 140 -10z m-730 -325 l0 -75 -78 0 -78 0 -22 68 c-12 38 -22 71 -22 75 0 4 45 7 100 7 l100 0 0 -75z m340 0 l0 -75 -115 0 -115 0 0 75 0 75 115 0 115 0 0 -75z m270 70 c0 -3 -14 -37 -32 -75 l-31 -71 -46 3 -46 3 -3 73 -3 72 81 0 c44 0 80 -2 80 -5z"/> <path d="M1142 290 c-47 -29 -72 -76 -72 -135 0 -92 57 -145 154 -145 56 0 61 2 102 44 41 40 44 47 44 97 0 64 -24 110 -72 139 -43 26 -113 26 -156 0z"/> <path d="M1662 290 c-53 -33 -74 -75 -69 -144 3 -54 7 -62 45 -97 38 -36 46 -39 99 -39 96 0 153 54 153 145 0 59 -25 106 -72 135 -43 26 -113 26 -156 0z"/> </g> </svg> 